SplineFontDB: 3.0
FontName: Untitled1
FullName: Untitled1
FamilyName: Untitled1
Weight: Medium
Copyright: Created by George Williams with FontForge 2.0 (http://fontforge.sf.net)
UComments: "2010-2-24: Created." 
Version: 001.000
ItalicAngle: 0
UnderlinePosition: -100
UnderlineWidth: 50
Ascent: 800
Descent: 200
LayerCount: 2
Layer: 0 0 "Back"  1
Layer: 1 0 "Fore"  0
NeedsXUIDChange: 1
XUID: [1021 964 2052049571 14705418]
OS2Version: 0
OS2_WeightWidthSlopeOnly: 0
OS2_UseTypoMetrics: 1
CreationTime: 1267052419
ModificationTime: 1274880864
OS2TypoAscent: 0
OS2TypoAOffset: 1
OS2TypoDescent: 0
OS2TypoDOffset: 1
OS2TypoLinegap: 0
OS2WinAscent: 0
OS2WinAOffset: 1
OS2WinDescent: 0
OS2WinDOffset: 1
HheadAscent: 0
HheadAOffset: 1
HheadDescent: 0
HheadDOffset: 1
OS2Vendor: 'PfEd'
DEI: 91125
Encoding: ISO8859-1
UnicodeInterp: none
NameList: Adobe Glyph List
DisplaySize: -48
AntiAlias: 1
FitToEm: 1
WinInfo: 64 16 4
BeginChars: 256 34

StartChar: B
Encoding: 66 66 0
Width: 1000
VWidth: 0
Flags: H
LayerCount: 2
Fore
SplineSet
84 114 m 25
 426 456 l 25
EndSplineSet
EndChar

StartChar: A
Encoding: 65 65 1
Width: 1000
VWidth: 0
Flags: H
LayerCount: 2
Back
SplineSet
63 389 m 5
 63 439 l 5
 711 439 l 5
 711 389 l 5
 63 389 l 5
EndSplineSet
Fore
SplineSet
63 414 m 1
 711 414 l 1
EndSplineSet
EndChar

StartChar: C
Encoding: 67 67 2
Width: 1000
VWidth: 0
Flags: HW
LayerCount: 2
Back
SplineSet
371 689 m 1
 371 739 l 1
 685.847 739 750.761 548.135 750.761 402.595 c 0
 750.761 352.595 l 0
 750.761 171.719 629.344 17 421 17 c 0
 371 17 l 1
 371 67 l 1
 563.369 67 688.51 200.498 699.948 377.597 c 1
 699.945 377.647 686.267 689 371 689 c 1
0 0 m 25
-25 -25 m 1
 -25 25 l 1
 25 25 l 1
 25 -25 l 1
 -25 -25 l 1
726 377 m 25
701 352 m 1
 701 402 l 1
 751 402 l 1
 751 352 l 1
 701 352 l 1
589 658 m 25
564 633 m 1
 564 683 l 1
 614 683 l 1
 614 633 l 1
 564 633 l 1
396 714 m 4
 834.974 714 836.387 42 396 42 c 4
EndSplineSet
Fore
SplineSet
396 714 m 0
 834.974 714 836.387 42 396 42 c 0
EndSplineSet
EndChar

StartChar: D
Encoding: 68 68 3
Width: 1000
VWidth: 0
Flags: HW
LayerCount: 2
Back
SplineSet
396 90 m 4
 834.974 90 836.387 762 396 762 c 4
EndSplineSet
Fore
SplineSet
396 90 m 4
 834.974 90 836.387 762 396 762 c 4
EndSplineSet
EndChar

StartChar: E
Encoding: 69 69 4
Width: 1000
VWidth: 0
Flags: H
LayerCount: 2
Back
SplineSet
228 564 m 21
 1316.57 539.691 1196.35 501.289 228 453 c 13
EndSplineSet
Fore
SplineSet
228 564 m 21
 1316.57 539.691 1196.35 501.289 228 453 c 13
EndSplineSet
EndChar

StartChar: F
Encoding: 70 70 5
Width: 1000
VWidth: 0
Flags: H
LayerCount: 2
Back
SplineSet
234 315 m 4
 234 427.608 325.392 519 438 519 c 4
 550.608 519 642 427.608 642 315 c 4
 642 202.392 550.608 111 438 111 c 4
 325.392 111 234 202.392 234 315 c 4
EndSplineSet
Fore
SplineSet
234 315 m 4
 234 427.608 325.392 519 438 519 c 4
 550.608 519 642 427.608 642 315 c 4
 642 202.392 550.608 111 438 111 c 4
 325.392 111 234 202.392 234 315 c 4
EndSplineSet
EndChar

StartChar: G
Encoding: 71 71 6
Width: 1000
VWidth: 0
Flags: H
LayerCount: 2
Back
SplineSet
153 300 m 29
 435 300 l 29
 435 570 l 29
EndSplineSet
Fore
SplineSet
153 300 m 29
 435 300 l 29
 435 570 l 29
EndSplineSet
EndChar

StartChar: H
Encoding: 72 72 7
Width: 1000
VWidth: 0
Flags: H
LayerCount: 2
Back
SplineSet
195 441 m 29
 471 441 l 29
 471 213 l 29
EndSplineSet
Fore
SplineSet
195 441 m 29
 471 441 l 29
 471 213 l 29
EndSplineSet
EndChar

StartChar: I
Encoding: 73 73 8
Width: 1000
VWidth: 0
Flags: H
LayerCount: 2
Back
SplineSet
183 462 m 5
 675 462 l 5
 675 192 l 5
 183 192 l 5
 183 462 l 5
EndSplineSet
Fore
SplineSet
183 462 m 5
 675 462 l 5
 675 192 l 5
 183 192 l 5
 183 462 l 5
EndSplineSet
EndChar

StartChar: J
Encoding: 74 74 9
Width: 1000
VWidth: 0
Flags: HW
LayerCount: 2
Back
SplineSet
183 462 m 5
 183 192 l 5
 675 192 l 5
 675 462 l 5
 183 462 l 5
EndSplineSet
Fore
SplineSet
183 462 m 5
 183 192 l 5
 675 192 l 5
 675 462 l 5
 183 462 l 5
EndSplineSet
EndChar

StartChar: K
Encoding: 75 75 10
Width: 1000
VWidth: 0
Flags: H
LayerCount: 2
Back
SplineSet
177 369 m 29
 390 369 l 29
 513 492 l 29
EndSplineSet
Fore
SplineSet
177 369 m 29
 390 369 l 29
 513 492 l 29
EndSplineSet
EndChar

StartChar: L
Encoding: 76 76 11
Width: 1000
VWidth: 0
Flags: H
LayerCount: 2
Back
SplineSet
180 351 m 29
 414 351 l 29
 108 252 l 29
EndSplineSet
Fore
SplineSet
180 351 m 29
 414 351 l 29
 108 252 l 29
EndSplineSet
EndChar

StartChar: M
Encoding: 77 77 12
Width: 1000
VWidth: 0
Flags: H
LayerCount: 2
Fore
SplineSet
183 315 m 5
 291 502.061 l 5
 507 502.061 l 5
 615 315 l 5
 507 127.939 l 5
 291 127.938 l 5
 183 315 l 5
EndSplineSet
EndChar

StartChar: N
Encoding: 78 78 13
Width: 1000
VWidth: 0
Flags: H
LayerCount: 2
Fore
SplineSet
63 333 m 5
 82.5284 456.298 l 5
 139.202 567.526 l 5
 227.474 655.798 l 5
 338.702 712.472 l 5
 462 732 l 5
 585.298 712.472 l 5
 696.526 655.798 l 5
 784.798 567.526 l 5
 841.472 456.298 l 5
 861 333 l 5
 841.472 209.702 l 5
 784.798 98.4737 l 5
 696.526 10.2022 l 5
 585.298 -46.4715 l 5
 462 -66 l 5
 338.702 -46.4715 l 5
 227.474 10.2023 l 5
 139.202 98.4738 l 5
 82.5285 209.702 l 5
 63 333 l 5
EndSplineSet
EndChar

StartChar: O
Encoding: 79 79 14
Width: 675
Flags: HW
LayerCount: 2
Fore
SplineSet
488 606 m 4
 493 613 495 618 495 622 c 4
 495 626 491 629 478 632 c 6
 451 638 l 5
 444 645 445 658 453 663 c 5
 613.96 653.802 375.27 448.178 488 606 c 4
EndSplineSet
EndChar

StartChar: P
Encoding: 80 80 15
Width: 747
Flags: HW
LayerCount: 2
Fore
SplineSet
648 102 m 5
 648 62 654 38 672 31 c 5
 675 28 675 22 671 19 c 5
 659 19 641 15 622 10 c 4
 356.362 -60.1685 534.294 11.4536 556 45 c 4
 561 52 566 70 566 102 c 5
 648 102 l 5
EndSplineSet
EndChar

StartChar: Q
Encoding: 81 81 16
Width: 795
Flags: HW
LayerCount: 2
Fore
SplineSet
591.926 503.211 m 4
 708.599 386.538 726.276 224.611 656.979 95.918 c 5
 659.101 90.9678 664.758 90.9678 673.243 90.9678 c 4
 743.953 92.3818 866.99 99.4531 941.943 137.637 c 4
 976.592 155.314 1001.34 177.234 1017.6 193.498 c 4
 1024.67 200.569 1039.52 219.661 1045.18 233.804 c 5
 1050.13 237.339 1057.91 232.389 1059.32 226.732 c 5
 1049.42 191.377 1023.26 153.9 998.512 129.151 c 4
 965.985 96.625 918.609 63.3906 857.798 40.7637 c 4
 772.945 9.65039 685.264 3.99316 633.645 3.28613 c 4
 591.219 3.28613 583.44 -1.66309 560.105 -17.9268 c 4
 538.893 -33.4834 509.194 -54.6963 473.839 -70.2529 c 4
 344.438 -128.942 203.017 -102.072 101.9 -0.956055 c 4
 -39.5205 140.465 -41.6416 354.719 104.021 500.383 c 4
 267.363 663.725 467.475 627.662 591.926 503.211 c 4
EndSplineSet
EndChar

StartChar: R
Encoding: 82 82 17
Width: 794
Flags: HW
LayerCount: 2
Fore
SplineSet
210 538 m 6
 210 359 l 5
 359 359 l 5
 363 353 363 338 359 330 c 5
 210 330 l 5
 210 179 l 6
 210 133 212 82 229 57 c 5
 251 27 291 15 349 15 c 4
 556 15 648 144 648 336 c 4
 648 449 590 641 324 640 c 4
 264 640 230 633 221 625 c 4
 213 617 210 583 210 538 c 6
EndSplineSet
EndChar

StartChar: two
Encoding: 50 50 18
Width: 1000
VWidth: 0
Flags: H
LayerCount: 2
Back
SplineSet
-25 0 m 0
 -25 13.8 -13.8 25 0 25 c 0
 13.8 25 25 13.8 25 0 c 0
 25 -13.8 13.8 -25 0 -25 c 0
 -13.8 -25 -25 -13.8 -25 0 c 0
EndSplineSet
EndChar

StartChar: S
Encoding: 83 83 19
Width: 1000
VWidth: 0
Flags: HW
LayerCount: 2
Fore
SplineSet
195 306 m 5
 591 306 l 5
 591 256 l 5
 195 256 l 5
 195 306 l 5
EndSplineSet
EndChar

StartChar: T
Encoding: 84 84 20
Width: 1000
VWidth: 0
Flags: HW
LayerCount: 2
Fore
SplineSet
418 256 m 5
 418 83 l 5
 368 83 l 5
 368 256 l 5
 195 256 l 5
 195 306 l 5
 368 306 l 5
 368 479 l 5
 418 479 l 5
 418 306 l 5
 591 306 l 5
 591 256 l 5
 418 256 l 5
EndSplineSet
EndChar

StartChar: U
Encoding: 85 85 21
Width: 1000
VWidth: 0
Flags: HW
LayerCount: 2
Fore
SplineSet
504 259 m 1
 504 86 l 1
 211 86 l 1
 211 259 l 1
 38 259 l 1
 38 309 l 1
 211 309 l 1
 211 482 l 1
 504 482 l 1
 504 309 l 1
 739 309 l 1
 739 482 l 1
 1032 482 l 1
 1032 309 l 1
 1205 309 l 1
 1205 259 l 1
 1032 259 l 1
 1032 86 l 1
 739 86 l 1
 739 259 l 1
 504 259 l 1
EndSplineSet
EndChar

StartChar: V
Encoding: 86 86 22
Width: 500
Flags: HW
HStem: 191 50<24 416>
LayerCount: 2
Back
SplineSet
456 216 m 5
 441 166 l 5
 -16 166 l 5
 -16 216 l 5
 -1 266 l 5
 456 266 l 5
 456 216 l 5
EndSplineSet
Fore
SplineSet
431 241 m 5
 416 191 l 1
 9 191 l 1
 24 241 l 1
 431 241 l 5
EndSplineSet
EndChar

StartChar: W
Encoding: 87 87 23
Width: 500
Flags: W
HStem: 0 31<241 241 241 301> 611 28 611 111
VStem: 91 67<476 524> 199 32.5 286.5 33.5 371 73<123 161.5>
LayerCount: 2
Fore
SplineSet
325 717 m 1xbe
 315 639 l 1
 282 640 l 1xde
 291 717 l 1
 296 724 319 724 325 717 c 1xbe
EndSplineSet
EndChar

StartChar: X
Encoding: 88 88 24
Width: 500
Flags: W
HStem: -3 26.5 189 42<119 273 396 406 406 460>
VStem: 20 67 302 74<122 164 164 167 82.5 176 257 441 441 444.5>
LayerCount: 2
Fore
SplineSet
396 231 m 2
 460 231 l 1
 469 224 469 198 460 189 c 1
 406 189 l 6
 399 189 387 231 396 231 c 2
EndSplineSet
EndChar

StartChar: Y
Encoding: 89 89 25
Width: 500
Flags: HW
LayerCount: 2
Fore
SplineSet
302 257 m 2
 376 254 l 1
 376 235 379 231 396 231 c 2
 460 231 l 1
 469 224 469 198 460 189 c 1
 406 189 l 2
 381 189 376 188 376 167 c 2
 376 122 l 2
 376 43 378 30 419 25 c 2
 445 22 l 1
 451 16 450 0 443 -3 c 1
 407 -1 370 0 339 0 c 0
 303 0 258 -1 214 -3 c 1
 207 0 206 16 212 22 c 1
 257 25 l 2
 299 28 302 45 302 122 c 2
 302 164 l 2
 302 208 302 256.216 302 257 c 2
EndSplineSet
EndChar

StartChar: Z
Encoding: 90 90 26
Width: 320
Flags: W
HStem: 257 22<67 67>
VStem: 63 78 139 58<-61.5 -25.5 -61.5 -14.5 562 597.5> 154 62<159 189.5 144 191 346.5 377.5>
LayerCount: 2
Fore
SplineSet
216 375 m 0x90
 216 318 193 283 141 270 c 1
 141 266 l 1
 193 253 216 218 216 161 c 0x90
 216 127 211 92 207 58 c 0
 203 24 197 -9 197 -42 c 0
 197 -81 207 -126 281 -138 c 1
 286 -142 286 -153 281 -158 c 1
 232 -158 139 -149 139 -32 c 0xa0
 139 3 143 39 147 75 c 0
 151 110 154 144 154 174 c 0x90
 154 208 150 251 67 257 c 1xd0
 62 263 62 273 67 279 c 1
 150 285 154 328 154 362 c 0x90
 154 393 150 426 147 462 c 0
 144 497 139 534 139 568 c 0
 139 685 232 694 281 694 c 1
 286 689 286 679 281 674 c 1
 207 662 197 617 197 578 c 0xa0
 197 546 202 512 207 478 c 0
 212 444 216 410 216 375 c 0x90
EndSplineSet
EndChar

StartChar: h
Encoding: 104 104 27
Width: 1000
Flags: H
LayerCount: 2
Back
SplineSet
200.972 297.535 m 1
 194.086 285.566 l 0
 196.676 290.086 l 0
 218.326 327.586 l 0
 227.934 344.163 231.682 349.75 262 349.75 c 0
 357 349.75 l 1
 361.721 349.593 413.679 346.961 446.263 369.956 c 1
 446.304 370.944 446.35 371.933 446.35 373.25 c 0
 446.35 532.25 l 0
 446.35 568.653 447.855 591.273 451.35 605.25 c 1
 456.106 626.655 461.131 640.406 387.051 641.229 c 0
 369.207 641.046 385.186 642.345 334.65 548.25 c 0
 200.972 297.535 l 1
129.962 164.356 m 1
 115.062 136.41 102.094 112.091 85.6504 81.25 c 1
 70.3203 53.4639 97.8242 73.1738 44.3135 18.6982 c 1
 44.6611 18.7012 50.2588 18.75 59 18.75 c 0
 61.4629 18.749 66.8291 18.7432 71.3145 18.7236 c 1
 69.4922 25.082 69.7842 33.791 77.3496 51.25 c 0
 93.0059 86.6221 104.981 114.541 129.962 164.356 c 1
368 678.75 m 0
 400.861 678.75 456.691 688.591 471.439 664.285 c 1
 471.946 663.423 471.187 664.744 471.681 663.875 c 0
 480.102 649.289 486.884 637.543 493.331 626.375 c 0
 497.095 619.769 496.003 611.335 494.65 605.25 c 1
 491.156 591.273 489.65 568.653 489.65 532.25 c 0
 489.65 488.135 489.65 407.709 489.65 373.25 c 0
 489.65 349.804 470.356 312.309 384.299 312.164 c 0
 383.299 312.163 384.824 312.163 383.824 312.163 c 0
 366.981 312.163 353.419 312.163 340.523 312.163 c 0
 339.491 312.164 337.427 312.172 335.366 312.249 c 0
 334.366 312.283 336.35 312.25 335.35 312.25 c 0
 335.55 312.25 325.01 312.25 283.65 312.25 c 0
 236.81 312.25 237.929 286.511 236.65 284.25 c 0
 224.979 263.365 216.446 247.628 208.634 232.989 c 0
 197.466 212.064 188.732 195.094 181.309 180.384 c 0
 152.407 123.116 131.588 75.96 120.65 51.25 c 0
 118.845 47.084 117.637 43.8799 116.579 40.6436 c 1
 133.442 37.5459 150.886 34.3428 165 31.75 c 1
 165.36 31.4795 165.704 31.1445 166.052 30.6543 c 1
 166.575 29.8018 166 30.8574 166.47 29.9746 c 1
 174.891 15.3887 181.672 3.64258 188.12 -7.52539 c 1
 192.24 -15.2725 186.143 -21.3809 185.65 -21.75 c 1
 167.382 -21.75 154.817 -21.75 142.35 -21.75 c 1
 108.942 -18.8447 60.8008 -18.8486 60.7266 -18.8477 c 1
 29.4873 -19.1797 6.04395 -20.374 -17.3496 -21.75 c 1
 -35.6182 -21.75 -48.1826 -21.75 -60.6504 -21.75 c 1
 -70.5059 -15.1797 -68.7871 -16.7842 -64.4873 -8.04102 c 1
 -64.001 -7.16699 -64.6455 -8.21777 -64.1143 -7.37109 c 1
 -55.6934 7.21484 -48.9111 18.9609 -42.4639 30.1289 c 1
 -42.0068 30.8574 -41.5146 31.3633 -41 31.75 c 1
 -26.8574 34.9824 -16.2402 37.4092 -6 39.75 c 1
 25.8301 47.707 44.3535 85.0098 44.3574 85.0166 c 1
 66.8662 127.231 105.252 199.223 122.368 231.325 c 0
 165.638 312.477 257.058 483.938 291.35 548.25 c 0
 318.369 598.561 326.845 626.465 331.556 634.693 c 0
 339.977 649.279 346.758 661.025 353.206 672.193 c 0
 357.093 678.983 362.082 678.75 368 678.75 c 0
EndSplineSet
EndChar

StartChar: bracketleft
Encoding: 91 91 28
Width: 835
Flags: W
HStem: -3 25 0 16 0 23 331 27<246.5 357 276 357 276 357 498 554> 630 30<385 389 385 385> 637 23<499 516 516 571> 643 20G
VStem: -44 136 392 76<158 297 392 551> 751 18
LayerCount: 2
Fore
SplineSet
368 660 m 0x3480
 446 660 481.593 662.668 473 624 c 4
 471 616 468 599 468 551 c 6
 468 392 l 6
 468 326 357.208 331 357 331 c 6
 262 331 l 6
 231 331 228 326 215 303 c 0
 158 201 126 131 99 70 c 0
 86 40 91 27 116 22 c 2
 165 13 l 1
 169 10 168 0 164 -3 c 1
 141 -1 103 0 59 0 c 0
 20 0 -5 -1 -39 -3 c 1
 -45 1 -45 10 -41 13 c 1
 -6 21 l 2
 18 27 32 42 64 100 c 0
 158 269 253 454 313 567 c 0
 359.87 654.274 346 660 368 660 c 0x3480
EndSplineSet
EndChar

StartChar: backslash
Encoding: 92 92 29
Width: 432
Flags: W
HStem: -16 21G<650 655.5> -3 26.5 637 26
VStem: 126 41<251 469> 625 41<195 409>
LayerCount: 2
Fore
SplineSet
61 24 m 4
 61 29 64 31 61 31 c 2
 71 31 l 2
 96.4343 31 181 70 181 26 c 0
 181 -28 64.1913 -1.38263 62 3 c 0xb6
 62 5 61 9 61 24 c 4
EndSplineSet
EndChar

StartChar: at
Encoding: 64 64 30
Width: 1000
VWidth: 0
Flags: H
LayerCount: 2
Fore
SplineSet
0 0 m 29,0,0
EndSplineSet
EndChar

StartChar: bracketright
Encoding: 93 93 31
Width: 960
Flags: HW
LayerCount: 2
Fore
SplineSet
473 342 m 4
 438 422 401 502 363 582 c 4
 277.381 758.945 430.885 624.903 449 582 c 4
 470 533 498 470 526 408 c 5
 545 447 563 485 585 539 c 4
 643.013 675.976 740.154 740.242 637 548 c 5
 616 511 574 424 559 389 c 4
 554 379 550 369 550 365 c 4
 550 361 552 353 557 341 c 4
 591 264 626 189 659 113 c 5
 690 183 720 253 749 324 c 4
 769 372 822 505 829 523 c 4
 886.035 680.944 988.349 781.193 851 463 c 6
 778 294 l 6
 734 192 694 94 653 -13 c 5
 650 -15 646 -16 641 -16 c 4
 636 -16 631 -15 627 -13 c 5
 595 76 537 201 506 271 c 5
 498 288 480.116 324.922 473 342 c 4
EndSplineSet
Comment: "These next three had problems with miter joins" 
EndChar

StartChar: asciicircum
Encoding: 94 94 32
Width: 500
Flags: W
HStem: -3 25 209 32<74 224 74 226 74 224 300 449> 322 32<74 210 74 224 74 210 313 449> 606.5 24.5
VStem: 226 74<123 322 209 322> 332 182
LayerCount: 2
Fore
SplineSet
449 209 m 1
 298 209 l 1
 298 123 l 2
 298 -60.6672 226 -59.7612 226 123 c 6
 226 209 l 1
 74 209 l 1
 67 215 67 235 74 241 c 1
 224 241 l 1
 224 322 l 1
 74 322 l 1
 67 328 67 348 74 354 c 1
 210 354 l 1
 108 527 l 1
 -12.0927 733.409 149.681 593.945 192 517 c 2
 243 426 l 2
 259 397 272 370 276 370 c 0
 281 370 292 381 307 409 c 2
 345 479 l 1
 418.457 617.099 526.561 718.376 402 507 c 1
 313 354 l 1
 449 354 l 1
 456 348 456 328 449 322 c 1
 300 322 l 1
 300 241 l 1
 449 241 l 1
 456 235 456 215 449 209 c 1
EndSplineSet
EndChar

StartChar: underscore
Encoding: 95 95 33
Width: 401
Flags: W
HStem: -217 28<209 220.5 209 221> -14 56<215.5 232> 314 21G<357.5 366> 374 34<211 266.5>
VStem: 36 72<174 239> 239 51<-161.5 -149.5>
LayerCount: 2
Fore
SplineSet
184 -97 m 1
 236 -13 l 2
 235 -14 233 -14 231 -14 c 0
 178 -14 129 3 94 37 c 0
 59 71 36 120 36 185 c 0
 36 293 112 408 278 408 c 0
 451.711 408 352.449 374 246 374 c 0
 176 374 108 319 108 213 c 0
 108 135 162 42 269 42 c 0
 327 42 357 68 380 102 c 1
 388 104 397 97 398 88 c 1
 371 29 319 0 270 -8 c 1
 241 -55 l 5
 226 -82 206 -80 184 -102 c 1
 184 -97 l 1
EndSplineSet
EndChar
